<?xml version="1.0" encoding="UTF-8"?>
<svg width="150px" height="150px" viewBox="0 0 150 150" version="1.1" xmlns="http://www.w3.org/2000/svg" xmlns:xlink="http://www.w3.org/1999/xlink">
    <!-- Generator: Sketch 44.1 (41455) - http://www.bohemiancoding.com/sketch -->
    <title>icon / adespresso / vector_386_24</title>
    <desc>Created with Sketch.</desc>
    <defs></defs>
    <g id="Symbols" stroke="none" stroke-width="1" fill="none" fill-rule="evenodd">
        <g id="icon-/-adespresso-/-vector_386_24" fill-rule="nonzero">
            <g id="vector_386_24" transform="translate(1.000000, 6.000000)">
                <path d="M88.9036,106.441032 C88.9036,90.8129032 101.5354,78.1495484 117.12128,78.1495484 C119.39382,78.1495484 121.6005,78.4248065 123.71764,78.9337742 C122.89402,62.4279355 114.06804,48.0492258 101.05958,39.583 C97.60674,51.2996452 86.80274,59.8504516 74,59.8504516 C61.19504,59.8504516 50.39104,51.2996452 46.94116,39.583 C33.93048,48.0492258 25.10672,62.4279355 24.2831,78.936 C26.40024,78.4270323 28.60692,78.1495484 30.8802,78.1495484 C46.46534,78.1495484 59.09788,90.8143871 59.09788,106.441032 C59.09788,113.987258 56.14454,120.83829 51.34268,125.911645 C58.13958,129.402452 65.83632,131.383419 74.00148,131.383419 C82.16442,131.383419 89.8619,129.402452 96.65954,125.909419 C91.8562,120.83829 88.9036,113.987258 88.9036,106.441032 Z" id="Shape" fill="#718DC8"></path>
                <g id="Group" transform="translate(56.980000, 20.774194)" fill="#242D3C">
                    <path d="M28.68832,35.5669032 C28.46262,34.0704194 27.7833,32.7186129 26.72362,31.6554194 C25.41308,30.3414516 23.66816,29.6180645 21.81224,29.6180645 L12.21814,29.6180645 C10.36814,29.6180645 8.62766,30.3414516 7.31712,31.6554194 C6.25596,32.7193548 5.57738,34.0711613 5.35168,35.5669032 L0.08806,34.7700645 C0.48396,32.1391613 1.68202,29.7568065 3.55274,27.8804516 C5.8682,25.5589355 8.94512,24.2790968 12.2174,24.2790968 L21.8115,24.2790968 C25.09044,24.2790968 28.17106,25.5581935 30.48726,27.8804516 C32.35724,29.7560645 33.5553,32.1384194 33.95194,34.7700645 L28.68832,35.5669032 Z" id="Shape"></path>
                    <path d="M17.02,21.5339355 C11.1074,21.5339355 6.2974,16.7120968 6.2974,10.7847742 C6.2974,4.85670968 11.1074,0.0341290323 17.02,0.0341290323 C22.93112,0.0341290323 27.74038,4.85670968 27.74038,10.7847742 C27.74038,16.7120968 22.93112,21.5339355 17.02,21.5339355 Z M17.02,5.3716129 C14.04298,5.3716129 11.62096,7.79996774 11.62096,10.7847742 C11.62096,13.7688387 14.04298,16.1957097 17.02,16.1957097 C19.99554,16.1957097 22.41682,13.7688387 22.41682,10.7847742 C22.41682,7.79996774 19.99554,5.3716129 17.02,5.3716129 Z" id="Shape"></path>
                </g>
                <g id="Group" transform="translate(99.900000, 94.967742)" fill="#242D3C">
                    <path d="M5.55666,36.2546774 L0.29304,35.4585806 C0.68894,32.8247097 1.887,30.4416129 3.75846,28.5674839 C6.07318,26.2459677 9.1501,24.9676129 12.42312,24.9676129 L22.01722,24.9676129 C25.29098,24.9676129 28.36716,26.2459677 30.68188,28.5674839 C32.56888,30.4609032 33.76768,32.8506774 34.14952,35.4823226 L28.88146,36.2517097 C28.66538,34.7656129 27.98606,33.4138065 26.9175,32.3402258 C25.60918,31.0284839 23.8687,30.3065806 22.01796,30.3065806 L12.42386,30.3065806 C10.57312,30.3065806 8.8319,31.0292258 7.52358,32.3409677 C6.46168,33.4041613 5.78162,34.7581935 5.55666,36.2546774 Z" id="Shape"></path>
                    <path d="M17.22054,22.2217097 C11.30794,22.2217097 6.4972,17.399871 6.4972,11.4732903 C6.4972,5.54522581 11.30794,0.722645161 17.22054,0.722645161 C23.13166,0.722645161 27.94092,5.54522581 27.94092,11.4732903 C27.94166,17.399871 23.1324,22.2217097 17.22054,22.2217097 Z M17.22054,6.06012903 C14.24352,6.06012903 11.8215,8.48774194 11.8215,11.4732903 C11.8215,14.4566129 14.24278,16.8842258 17.22054,16.8842258 C20.19608,16.8842258 22.61736,14.4573548 22.61736,11.4732903 C22.61736,8.48774194 20.19682,6.06012903 17.22054,6.06012903 Z" id="Shape"></path>
                </g>
                <g id="Group" transform="translate(13.320000, 94.967742)" fill="#242D3C">
                    <path d="M29.22334,36.2546774 C28.99764,34.7574516 28.31758,33.4041613 27.2579,32.3409677 C25.94884,31.0284839 24.20762,30.3065806 22.35688,30.3065806 L12.76352,30.3065806 C10.91278,30.3065806 9.17156,31.0292258 7.8625,32.3409677 C6.79468,33.4138065 6.11536,34.7663548 5.89928,36.2517097 L0.63122,35.4823226 C1.01306,32.8506774 2.21186,30.4601613 4.09738,28.5682258 C6.41284,26.2459677 9.4905,24.9676129 12.76352,24.9676129 L22.35688,24.9676129 C25.63064,24.9676129 28.70756,26.2459677 31.02228,28.5674839 C32.893,30.4416129 34.09032,32.8247097 34.48696,35.4585806 L29.22334,36.2546774 Z" id="Shape"></path>
                    <path d="M17.55946,22.2217097 C11.6476,22.2217097 6.83834,17.399871 6.83834,11.4732903 C6.83834,5.54522581 11.6476,0.722645161 17.55946,0.722645161 C23.47206,0.722645161 28.28206,5.54522581 28.28206,11.4732903 C28.28206,17.399871 23.47206,22.2217097 17.55946,22.2217097 Z M17.55946,6.06012903 C14.58318,6.06012903 12.16264,8.48774194 12.16264,11.4732903 C12.16264,14.4566129 14.58318,16.8842258 17.55946,16.8842258 C20.53648,16.8842258 22.9585,14.4573548 22.9585,11.4732903 C22.9585,8.48774194 20.53648,6.06012903 17.55946,6.06012903 Z" id="Shape"></path>
                </g>
                <g id="Group" transform="translate(59.200000, 66.032258)" fill="#242D3C">
                    <rect id="Rectangle-path" x="12.13822" y="0.649193548" width="5.3243" height="14.7897419"></rect>
                    <rect id="Rectangle-path" transform="translate(8.413738, 19.142728) rotate(59.994310) translate(-8.413738, -19.142728) " x="5.75151377" y="11.7454243" width="5.3244491" height="14.7946079"></rect>
                    <rect id="Rectangle-path" transform="translate(21.193596, 19.134247) rotate(30.000728) translate(-21.193596, -19.134247) " x="13.8159579" y="16.4651926" width="14.7552754" height="5.33810836"></rect>
                </g>
                <g id="Group" fill="#242D3C">
                    <path d="M74,62.5191935 C56.97334,62.5191935 43.12054,48.6301613 43.12054,31.5589677 C43.12054,14.4877742 56.97334,0.598741935 74,0.598741935 C91.02666,0.598741935 104.87946,14.4877742 104.87946,31.5589677 C104.87946,48.6301613 91.02666,62.5191935 74,62.5191935 Z M74,5.93696774 C59.90892,5.93696774 48.44484,17.4310323 48.44484,31.5589677 C48.44484,45.6869032 59.90892,57.1817097 74,57.1817097 C88.09108,57.1817097 99.55516,45.6869032 99.55516,31.5589677 C99.55516,17.4310323 88.09108,5.93696774 74,5.93696774 Z" id="Shape"></path>
                    <path d="M117.12054,137.400516 C100.09388,137.400516 86.24108,123.511484 86.24108,106.44029 C86.24108,89.3690968 100.09462,75.4800645 117.12054,75.4800645 C134.14646,75.4800645 148,89.3698387 148,106.441032 C148,123.512226 134.1472,137.400516 117.12054,137.400516 Z M117.12054,80.8190323 C103.02946,80.8190323 91.56464,92.3130968 91.56464,106.441032 C91.56464,120.568968 103.02946,132.063032 117.12054,132.063032 C131.21088,132.063032 142.6757,120.568968 142.6757,106.441032 C142.6757,92.3130968 131.21162,80.8190323 117.12054,80.8190323 Z" id="Shape"></path>
                    <path d="M30.87946,137.39829 C13.8528,137.39829 0,123.510742 0,106.441032 C0,89.3698387 13.8528,75.4808065 30.87946,75.4808065 C47.90612,75.4808065 61.75892,89.3705806 61.75892,106.441032 C61.75892,123.510742 47.90612,137.39829 30.87946,137.39829 Z M30.87946,80.8190323 C16.78838,80.8190323 5.3243,92.3130968 5.3243,106.441032 C5.3243,120.567484 16.78838,132.060806 30.87946,132.060806 C44.97054,132.060806 56.43462,120.567484 56.43462,106.441032 C56.43462,92.3130968 44.97054,80.8190323 30.87946,80.8190323 Z" id="Shape"></path>
                </g>
            </g>
        </g>
    </g>
</svg>