<svg xmlns="http://www.w3.org/2000/svg" width="150" height="150">
  <g fill="none">
    <g fill="#242D3C">
      <path d="M55.34775 120.0105l-9.0645-38.2125 8.619-5.44275L77.01 101.74275l-2.0085 1.74825 1.4925 2.20425-21.14625 14.31525zm-3-35.7405l6.40425 27.00075 12.261-8.30025-17.1285-19.67025-1.53675.96975z"/>
      <path d="M94.65225 120.0105L73.506 105.69525l1.4925-2.20425-2.00925-1.74825 22.1055-25.3875 8.61975 5.44275-9.06225 38.2125zm-15.666-17.04l12.26175 8.30025 6.40275-26.9985-1.5375-.972-17.127 19.67025z"/>
      <path d="M79.6335 122.55675H70.368l-5.67525-12.783L69.564 107.61l4.26825 9.61725H76.167l4.2675-9.61725 4.872 2.1615"/>
      <path d="M84.20325 150l-8.2815-27.44775h-1.8435L65.79675 150l-5.10225-1.53825 9.42375-31.239h9.76425l9.423 31.239m37.28175-4.80075l-4.6575-44.4555L98.8605 88.34925l2.2695-4.82175 25.78875 12.13575 4.9695 47.442m-108.4755.55575l-5.301-.55575 4.9695-47.442L48.87 83.5275l2.2695 4.82175L28.07025 99.2055m66.65025 27.28575h17.055v5.3295h-17.055z"/>
    </g>
    <path fill="#718DC8" d="M74.99625 0c-16.137.0045-29.2155 13.0815-29.2155 29.21925 0 8.54625 3.675 16.2405 9.52125 21.585.279.23325.56025.47625.8475.72825 4.56 4.16625 7.428 10.149 7.428 16.8105h22.839c0-6.6615 2.85525-12.64425 7.43325-16.8105.28875-.252.561-.49575.83475-.72825 5.8395-5.3445 9.53625-13.03875 9.53625-21.585C104.22075 13.0815 91.1415.0045 74.99625 0z"/>
    <path fill="#FFF" d="M74.949 9.708v21.20625h-9.17175M74.949 48.7245V27.516h9.1605"/>
    <path fill="#242D3C" d="M61.18275 65.679h27.6285v5.3295h-27.6285zm0 8.499h27.6285v5.32875h-27.6285zm7.4385 8.49975H81.366v5.3295H68.62125z"/>
  </g>
</svg>
