<svg xmlns="http://www.w3.org/2000/svg" width="150" height="150">
  <g fill="none">
    <g fill="#242D3C">
      <path d="M94.43925 142.06275h-38.871c-4.1565 0-8.061-1.6185-10.99275-4.55625-2.931-2.925-4.54725-6.82875-4.54725-10.986V100.971H109.989v25.5495c0 4.15275-1.62075 8.05575-4.56375 10.9905-2.919 2.9325-6.822 4.55175-10.986 4.55175zm-49.239-35.9205v20.3775c0 2.77425 1.077 5.376 3.03225 7.32825 1.959 1.96125 4.563 3.042 7.33575 3.042h38.871c2.7765 0 5.379-1.0785 7.326-3.036 1.971-1.96425 3.051-4.566 3.051-7.33425v-20.3775h-59.616z"/>
      <path d="M97.02525 150h-44.043v-13.10925H97.026V150h-.00075zm-38.871-5.172h33.699v-2.76525h-33.699v2.76525zm49.248-38.68575h-64.788c-1.84725 0-3.58275-.72-4.88775-2.03025-1.30275-1.299-2.02275-3.03525-2.02275-4.87875 0-1.84875.72-3.58425 2.031-4.887 1.29675-1.29675 3.0315-2.0175 4.8795-2.0175h64.788c1.8375 0 3.56925.71925 4.87125 2.0235 1.30275 1.299 2.022 3.03375 2.022 4.881 0 1.8435-.71775 3.5775-2.0235 4.88175-1.302 1.30725-3.03225 2.02725-4.86975 2.02725zm-64.788-8.64c-.465 0-.89925.18-1.22475.50625-.3345.33075-.51375.76425-.51375 1.2255 0 .46125.1815.894.50925 1.2225.33225.333.7665.5145 1.22925.5145h64.788c.453 0 .88275-.18075 1.2105-.51.33075-.32925.51075-.76575.51075-1.227 0-.462-.1785-.8955-.5055-1.221-.32925-.33-.76125-.51075-1.21575-.51075h-64.788z"/>
    </g>
    <path fill="#242D3C" d="M72.4185 61.01025h5.172V94.9155h-5.172z"/>
    <path fill="#718DC8" d="M30.576 74.556c0 2.84625 1.089 5.694 3.26025 7.863 2.17275 2.1765 5.01975 3.261 7.8675 3.261H65.346V74.556c0-2.8485-1.086-5.69475-3.2625-7.86975-2.1705-2.17125-5.01675-3.25875-7.86375-3.25875H30.576V74.556zm88.848 0c0 2.84625-1.08 5.694-3.2565 7.863-2.172 2.1765-5.02125 3.261-7.86675 3.261H84.66V74.556c0-2.8485 1.0935-5.69475 3.2595-7.86975 2.17425-2.17125 5.0235-3.25875 7.8675-3.25875h23.63775V74.556h-.00075zM97.305 31.7955c0 12.3195-9.98775 22.311-22.3065 22.311s-22.30725-9.9915-22.30725-22.311c0-12.31725 9.9885-22.3065 22.30725-22.3065S97.305 19.47825 97.305 31.7955z"/>
    <g fill="#FFF">
      <path d="M76.6425 44.244h-3.29025c-2.00025 0-3.8865-.777-5.3085-2.19-1.42575-1.43475-2.20425-3.32175-2.20425-5.32425h5.172c0 .627.24375 1.21875.6885 1.66575.435.43125 1.026.67575 1.6515.67575h3.29025c.627 0 1.2225-.24525 1.6725-.69075.42525-.432.67275-1.0275.67275-1.65075 0-.62625-.243-1.21425-.68325-1.656-.4455-.44625-1.03575-.6915-1.66275-.6915h-3.29025c-2.01 0-3.89925-.78375-5.3175-2.20725-1.41225-1.40625-2.1945-3.29475-2.1945-5.31075 0-2.0055.7785-3.89175 2.19225-5.31375 1.4415-1.4265 3.32625-2.205 5.31975-2.205H76.641c1.992 0 3.87675.77625 5.307 2.187 1.4355 1.45575 2.21175 3.3405 2.21175 5.3325H78.987c0-.62475-.2475-1.22025-.69675-1.6755-.42975-.423-1.0245-.672-1.64925-.672h-3.29025c-.62325 0-1.21425.24675-1.6665.6945-.42975.432-.6735 1.02375-.6735 1.65225 0 .62925.2415 1.2165.67875 1.65225.4485.44925 1.0365.69375 1.66125.69375H76.641c2.01 0 3.8985.78375 5.32125 2.20725 1.4175 1.4175 2.19825 3.303 2.19825 5.31225 0 1.98975-.77625 3.8745-2.1855 5.30475-1.4475 1.434-3.3345 2.2095-5.3325 2.2095z"/>
      <path d="M72.4125 17.98875h5.1735v3.94275h-5.1735zm0 23.66925h5.1735v3.948h-5.1735z"/>
    </g>
    <path fill="#242D3C" d="M74.99925 63.5955c-17.532 0-31.797-14.26575-31.797-31.8C43.20225 14.26425 57.4665 0 74.99925 0 92.5335 0 106.7985 14.26425 106.7985 31.7955c-.00075 17.535-14.265 31.8-31.79925 31.8zm0-58.4235c-14.68125 0-26.625 11.943-26.625 26.6235 0 14.68275 11.943 26.628 26.625 26.628 14.68275 0 26.6265-11.94525 26.6265-26.628 0-14.6805-11.9445-26.6235-26.6265-26.6235z"/>
  </g>
</svg>
